<svg fill="none" height="44" viewBox="0 0 44 44" width="44" xmlns="http://www.w3.org/2000/svg" xmlns:xlink="http://www.w3.org/1999/xlink"><filter id="a" color-interpolation-filters="sRGB" filterUnits="userSpaceOnUse" height="54" width="54" x="-5" y="-5"><feFlood flood-opacity="0" result="BackgroundImageFix"/><feGaussianBlur in="BackgroundImageFix" stdDeviation="2.5"/><feComposite in2="SourceAlpha" operator="in" result="effect1_backgroundBlur_574_15077"/><feBlend in="SourceGraphic" in2="effect1_backgroundBlur_574_15077" mode="normal" result="shape"/></filter><clipPath id="b"><rect height="40" rx="8.00007" width="40" x="2" y="2"/></clipPath><g filter="url(#a)"><g clip-path="url(#b)"><rect fill="#e84142" height="40" rx="8.00007" width="40" x="2" y="2"/><path clip-rule="evenodd" d="m13.0549 29.5517h3.9099c.6939 0 1.0408 0 1.3534-.0929.3401-.1012.6513-.2817.9079-.5267.2357-.2249.4078-.526.7519-1.128l5.119-8.9552c.3392-.5933.5088-.8901.5832-1.203.081-.3406.0809-.6954-.0004-1.036-.0747-.3128-.2445-.6094-.5842-1.2024l-.0001-.0001-1.9743-3.4471-.0002-.0003c-.4669-.8154-.7005-1.2231-.9971-1.3745-.3204-.1637-.7002-.1634-1.0204.0007-.2964.1519-.5294.5601-.9953 1.3763l-8.5604 14.9969-.0002.0003c-.4591.8043-.6887 1.2065-.6701 1.5364.0201.3565.2093.682.5093.876.2776.1796.7411.1796 1.6681.1796zm13.326 0h4.533c.9369 0 1.4053 0 1.6838-.1813.301-.196.4896-.5243.5071-.8828.0161-.3318-.2202-.7359-.6928-1.544l-2.2702-3.882-.0001-.0003-.0005-.0008c-.4656-.7961-.6985-1.1943-.9929-1.3431-.3183-.1609-.6943-.1607-1.0124.0007-.2942.1494-.5267.5481-.9915 1.3455l-2.2628 3.8821c-.4708.8077-.7062 1.2116-.6897 1.5431.0178.3581.2065.6861.5074.8818.2785.1811.7462.1811 1.6816.1811z" fill="#fff" fill-rule="evenodd"/></g><rect height="42" rx="9.00007" stroke="#fff" stroke-width="2" width="42" x="1" y="1"/></g></svg>

