<svg fill="none" height="44" viewBox="0 0 44 44" width="44" xmlns="http://www.w3.org/2000/svg" xmlns:xlink="http://www.w3.org/1999/xlink"><filter id="a" color-interpolation-filters="sRGB" filterUnits="userSpaceOnUse" height="54" width="54" x="-5" y="-5"><feFlood flood-opacity="0" result="BackgroundImageFix"/><feGaussianBlur in="BackgroundImageFix" stdDeviation="2.5"/><feComposite in2="SourceAlpha" operator="in" result="effect1_backgroundBlur_574_15070"/><feBlend in="SourceGraphic" in2="effect1_backgroundBlur_574_15070" mode="normal" result="shape"/></filter><clipPath id="b"><rect height="40" rx="8.00007" width="40" x="2" y="2"/></clipPath><g filter="url(#a)"><g clip-path="url(#b)"><rect fill="#000" height="40" rx="8.00007" width="40" x="2" y="2"/><path d="m34.9338 12.1256c0-1.1118-.4417-2.17805-1.2278-2.9642-.7862-.78615-1.8524-1.22781-2.9642-1.22781s-2.178.44166-2.9642 1.22781c-.7861.78615-1.2278 1.8524-1.2278 2.9642s.4417 2.178 1.2278 2.9642c.7862.7861 1.8524 1.2278 2.9642 1.2278s2.178-.4417 2.9642-1.2278c.7861-.7862 1.2278-1.8524 1.2278-2.9642z" stroke="#808080" stroke-width=".4"/><path d="m15.1139 29.5511c-.0276 0-.054-.011-.0735-.0305s-.0305-.0459-.0305-.0735l-.004-17.386c0-.0276-.011-.0541-.0305-.0736s-.0459-.0304-.0735-.0304l-4.54-.002c-.0276 0-.054.0109-.0735.0304s-.0305.046-.0305.0736l-.004 21.636c0 .0276.011.054.0305.0735s.0459.0305.0735.0305h20.516c.0276 0 .054-.011.0735-.0305s.0305-.0459.0305-.0735l-.002-4.038c0-.0276-.011-.0541-.0305-.0736s-.0459-.0304-.0735-.0304z" stroke="#808080" stroke-width=".4"/><g fill="#fff"><path d="m30.7418 16.3176c2.3152 0 4.192-1.8768 4.192-4.192 0-2.31518-1.8768-4.19201-4.192-4.19201s-4.192 1.87683-4.192 4.19201c0 2.3152 1.8768 4.192 4.192 4.192z"/><path d="m15.1139 29.5511 15.758.002c.0276 0 .054.0109.0735.0304s.0305.046.0305.0736l.002 4.038c0 .0276-.011.054-.0305.0735s-.0459.0305-.0735.0305h-20.516c-.0276 0-.054-.011-.0735-.0305s-.0305-.0459-.0305-.0735l.004-21.636c0-.0276.011-.0541.0305-.0736s.0459-.0304.0735-.0304l4.54.002c.0276 0 .054.0109.0735.0304s.0305.046.0305.0736l.004 17.386c0 .0276.011.054.0305.0735s.0459.0305.0735.0305z"/></g></g><rect height="42" rx="9.00007" stroke="#fff" stroke-width="2" width="42" x="1" y="1"/></g></svg>

