<svg fill="none" height="44" viewBox="0 0 44 44" width="44" xmlns="http://www.w3.org/2000/svg" xmlns:xlink="http://www.w3.org/1999/xlink"><filter id="a" color-interpolation-filters="sRGB" filterUnits="userSpaceOnUse" height="54" width="54" x="-5" y="-5"><feFlood flood-opacity="0" result="BackgroundImageFix"/><feGaussianBlur in="BackgroundImageFix" stdDeviation="2.5"/><feComposite in2="SourceAlpha" operator="in" result="effect1_backgroundBlur_574_15059"/><feBlend in="SourceGraphic" in2="effect1_backgroundBlur_574_15059" mode="normal" result="shape"/></filter><clipPath id="b"><rect height="40" rx="8.00007" width="40" x="2" y="2"/></clipPath><g filter="url(#a)"><g clip-path="url(#b)"><rect fill="#ff0420" height="40" rx="8.00007" width="40" x="2" y="2"/><g fill="#fff"><path d="m15.002 28.3739c-1.4304 0-2.6016-.336-3.5136-1.008-.9024-.6816-1.3536-1.6608-1.3536-2.9184 0-.2688.0288-.5856.0864-.9696.1536-.864.3744-1.9008.6624-3.12.816-3.3024 2.928-4.9536 6.3264-4.9536.9216 0 1.7568.1536 2.4864.4704.7296.2976 1.3056.7584 1.728 1.3728.4224.6048.6336 1.3248.6336 2.16 0 .2496-.0288.5664-.0864.9504-.1824 1.0656-.3936 2.112-.6528 3.12-.4224 1.6416-1.1424 2.88-2.1792 3.696-1.0272.8064-2.4096 1.2-4.1376 1.2zm.2592-2.592c.672 0 1.2384-.2016 1.7088-.5952.48-.3936.8256-.9984 1.0272-1.824.2784-1.1328.4896-2.112.6336-2.9568.048-.2496.0768-.5088.0768-.7776 0-1.0944-.5664-1.6416-1.7088-1.6416-.672 0-1.248.2016-1.728.5952-.4704.3936-.8064.9984-1.008 1.824-.2208.8064-.432 1.7856-.6528 2.9568-.048.24-.0768.4896-.0768.7584-.0096 1.1136.576 1.6608 1.728 1.6608z"/><path d="m22.893 28.2023c-.1344 0-.2304-.0384-.3072-.1248-.0576-.096-.0768-.2016-.0576-.3264l2.4864-11.712c.0192-.1344.0864-.24.2016-.3264.1056-.0864.2208-.1248.3456-.1248h4.7904c1.3344 0 2.4.2784 3.2064.8256.816.5568 1.2288 1.3536 1.2288 2.4 0 .2976-.0384.6144-.1056.9408-.2976 1.3824-.9024 2.4-1.824 3.0624-.9024.6624-2.1408.9888-3.7152.9888h-2.4288l-.8256 3.9456c-.0288.1344-.0864.24-.2016.3264-.1056.0864-.2208.1248-.3456.1248zm6.3744-6.8832c.5088 0 .9408-.1344 1.3152-.4128.384-.2784.6336-.672.7584-1.1904.0384-.2016.0576-.384.0576-.5376 0-.3456-.1056-.6144-.3072-.7968-.2016-.192-.5568-.288-1.0464-.288h-2.16l-.6816 3.2256z"/></g></g><rect height="42" rx="9.00007" stroke="#fff" stroke-width="2" width="42" x="1" y="1"/></g></svg>
