<svg fill="none" height="44" viewBox="0 0 44 44" width="44" xmlns="http://www.w3.org/2000/svg" xmlns:xlink="http://www.w3.org/1999/xlink"><filter id="a" color-interpolation-filters="sRGB" filterUnits="userSpaceOnUse" height="54" width="54" x="-5" y="-5"><feFlood flood-opacity="0" result="BackgroundImageFix"/><feGaussianBlur in="BackgroundImageFix" stdDeviation="2.5"/><feComposite in2="SourceAlpha" operator="in" result="effect1_backgroundBlur_574_15068"/><feBlend in="SourceGraphic" in2="effect1_backgroundBlur_574_15068" mode="normal" result="shape"/></filter><g filter="url(#a)"><rect fill="#8345e6" height="40" rx="8.00007" width="40" x="2" y="2"/><rect height="42" rx="9.00007" stroke="#fff" stroke-width="2" width="42" x="1" y="1"/><path d="m28.1107 17.8847c-.4429-.2609-1.0185-.2609-1.5055 0l-3.4539 2.0009-2.3469 1.3049-3.4539 2.0007c-.4428.261-1.0184.261-1.5055 0l-2.7454-1.5659c-.4428-.2609-.7527-.7393-.7527-1.2613v-3.0882c0-.5219.2656-1.0004.7527-1.2614l2.7011-1.5223c.4428-.261 1.0185-.261 1.5056 0l2.7011 1.5223c.4428.261.7527.7395.7527 1.2614v2.0008l2.3469-1.3484v-2.0008c0-.5219-.2656-1.0004-.7528-1.2613l-5.0037-2.8708c-.4428-.2609-1.0184-.2609-1.5055 0l-5.0922 2.8708c-.4871.2609-.7528.7394-.7528 1.2613v5.785c0 .5219.2657 1.0004.7528 1.2614l5.0922 2.8707c.4428.2609 1.0185.2609 1.5055 0l3.4539-1.9573 2.3469-1.3484 3.4539-1.9573c.4428-.261 1.0184-.261 1.5055 0l2.7011 1.5223c.4427.261.7527.7395.7527 1.2614v3.0882c0 .522-.2656 1.0004-.7527 1.2614l-2.7011 1.5658c-.4429.261-1.0185.261-1.5055 0l-2.7011-1.5223c-.4429-.261-.7528-.7395-.7528-1.2614v-2.0008l-2.3469 1.3484v2.0007c0 .522.2657 1.0005.7527 1.2614l5.0923 2.8708c.4428.2609 1.0184.2609 1.5055 0l5.0923-2.8708c.4428-.2609.7528-.7394.7528-1.2614v-5.7849c0-.5219-.2657-1.0003-.7528-1.2613z" fill="#fff"/></g></svg>
