<svg width="24" height="24" viewBox="0 0 24 24" fill="none" xmlns="http://www.w3.org/2000/svg">
  <path d="M12 2C6.48 2 2 6.48 2 12C2 17.52 6.48 22 12 22C17.52 22 22 17.52 22 12C22 6.48 17.52 2 12 2ZM13 17.93V19H11V17.93C9.06 17.64 7.5 16.4 7.5 14.5H9.5C9.5 15.5 10.62 16 12 16C13.38 16 14.5 15.5 14.5 14.5C14.5 13.39 13.38 13 11.5 12.5C9.07 11.84 7.5 11.06 7.5 9.5C7.5 7.6 9.06 6.36 11 6.07V5H13V6.07C14.94 6.36 16.5 7.6 16.5 9.5H14.5C14.5 8.5 13.38 8 12 8C10.62 8 9.5 8.5 9.5 9.5C9.5 10.61 10.62 11 12.5 11.5C14.93 12.16 16.5 12.94 16.5 14.5C16.5 16.4 14.94 17.64 13 17.93Z" fill="currentColor"/>
</svg>





